<svg width="338" height="344" viewBox="0 0 338 344" fill="none" xmlns="http://www.w3.org/2000/svg">
<path d="M143.475 1.33517C117.608 5.0685 86.2748 18.9352 64.5415 36.1352C-1.99187 88.8018 -19.7252 186.669 23.7415 260.935C48.5415 303.335 91.8748 333.335 140.675 341.869C157.741 344.802 189.875 344.535 206.408 341.335C256.408 331.602 295.875 301.869 320.008 255.735C328.808 239.069 336.541 215.602 337.741 202.535C338.008 198.535 337.741 197.869 335.475 198.269C331.208 199.069 330.008 201.069 325.075 216.135C319.208 233.735 313.341 245.469 303.475 259.202C279.341 293.069 244.275 315.869 204.541 323.335C186.541 326.669 153.208 325.335 136.141 320.535C85.2081 306.402 44.6748 267.469 29.0748 217.869C23.7415 200.802 22.4081 189.069 23.2081 166.269C24.1415 136.802 30.6748 115.202 45.7415 90.8018C54.1415 77.3352 76.6748 53.6018 89.3415 45.2018C142.141 10.0018 207.875 9.33517 260.541 43.7352C280.008 56.5352 301.208 79.7352 312.141 100.402C314.408 104.669 316.008 108.535 315.741 108.669C315.341 109.202 244.141 135.202 205.075 149.335L190.675 154.535L189.475 151.469C188.808 149.869 186.408 127.469 184.141 101.869C181.875 76.1352 179.741 54.1352 179.341 52.8018C178.941 51.6018 177.475 50.5352 176.141 50.5352C173.341 50.5352 173.208 51.2018 170.141 85.2018C165.075 139.469 163.741 152.535 162.941 153.469C162.408 154.002 141.741 148.802 116.808 141.869C77.0748 130.802 71.2081 129.469 69.4748 131.202C68.2748 132.402 68.0081 133.602 68.8081 134.402C69.6081 135.069 86.5415 143.869 106.541 153.869C126.408 163.869 142.808 172.669 142.808 173.335C142.808 174.002 126.275 182.802 106.141 192.802C80.2748 205.735 69.4748 211.869 69.4748 213.335C69.4748 214.535 70.2748 215.869 71.2081 216.269C72.0081 216.535 92.0081 211.602 115.475 205.069C138.941 198.535 159.475 193.202 160.941 193.202C163.475 193.202 163.875 194.135 164.675 203.469C165.608 214.802 168.408 243.735 171.475 274.935C172.541 285.735 173.475 294.935 173.475 295.335C173.475 295.735 174.808 295.869 176.408 295.602C179.341 295.202 179.475 294.269 184.408 244.535C187.075 216.669 189.341 193.735 189.341 193.469C189.875 191.869 193.741 192.802 259.741 211.335C271.608 214.669 282.008 217.069 282.808 216.535C286.675 214.135 280.941 210.269 247.475 193.202C227.741 183.069 211.475 174.002 211.475 173.202C211.475 172.402 237.075 159.202 268.408 144.002C299.741 128.802 326.275 115.602 327.208 114.669C328.941 113.335 328.941 112.269 327.475 107.469C324.141 96.1352 317.208 81.7352 310.141 71.2018C286.275 35.2018 248.008 10.2685 204.141 2.00184C192.141 -0.398162 157.341 -0.664829 143.475 1.33517Z" fill="#116BFE"/>
</svg>
