<?xml version="1.0" encoding="UTF-8"?>
<svg viewBox="0 0 1126.2 673.65" xmlns="http://www.w3.org/2000/svg">
<defs>
<style>.cls-1{fill:#cb151b;}</style>
</defs>
<g data-name="Capa 2">
<g data-name="Capa 1">
<g data-name="#ffffffff">
<path class="cls-1" d="M51,2.15A68.28,68.28,0,0,1,130.65,40.7a69.41,69.41,0,0,1,4.93,37.66A67.81,67.81,0,0,1,62,135.9a67.39,67.39,0,0,1-43.21-20.47C7.69,104.22,1.24,88.86,0,73.22V63A69,69,0,0,1,8.15,35.29,67.77,67.77,0,0,1,51,2.15Z"/>
<path class="cls-1" d="M929.57,156c33.72-3.36,68.44,2.71,98.66,18.17,46.72,23.2,82.08,68,93.45,118.94,10.34,44.69,2.84,93.35-21.19,132.51A178.71,178.71,0,1,1,929.57,156m3,95.94a83.37,83.37,0,0,0-60.54,47.47A82.16,82.16,0,0,0,870.33,363a83.38,83.38,0,0,0,30,38c16.29,11.33,36.72,16.9,56.49,14.43a83.74,83.74,0,0,0,41.86-17.22c21.71-16.64,34.06-44.61,31.44-71.87-2-27.21-18.76-52.59-42.73-65.5A83.42,83.42,0,0,0,932.59,252Z"/>
<path class="cls-1" d="M61.44,170.84c18-6.89,37.43-9.12,56.58-9.83a33.66,33.66,0,0,1,8.45.42q.11,168.92,0,337.85c0,2.55.34,5.12-.17,7.65q-58.65.12-117.3,0c-1.6.31-1.39-1.8-1.52-2.78q0-125.44,0-250.9c.07-18.95,4.47-38.4,15.53-54.05C32.36,185.89,46.37,176.48,61.44,170.84Z"/>
<path class="cls-1" d="M180.78,161.07c34.08-.22,68.18,0,102.26-.09,5.36.08,10.73-.22,16.07.23.4,14-.12,28.07.27,42.09,2.65-1.06,4.25-3.55,6.34-5.37,21.55-20.83,50.81-32.22,80.27-35.73,8.29-.86,16.68-1.73,25-.91.62,32.63.07,65.31.28,98a31.58,31.58,0,0,1-.44,6.66c-37,.24-74.09-.13-111.13.19-.65,3.34-.44,6.75-.45,10.13v208c-.13,7.57.26,15.17-.21,22.74q-58.52.15-117,0c-1.67.33-1.85-1.46-1.76-2.62V165.19A22,22,0,0,1,180.78,161.07Z"/>
<path class="cls-1" d="M436.43,162.4c.28-.34.83-1,1.1-1.38,24.57.45,49.48,2.65,72.87,10.63,24.72,8.06,46.89,26.34,55.77,51.25,15.42,39,30.49,78.17,45.73,117.26a5.62,5.62,0,0,0,2.15,2.89C635.93,283.4,657,223.44,678.64,163.7c.55-1,.68-2.9,2.25-2.75,5.67-.57,11.4-.09,17.1,0h85c3.33,0,6.7-.23,10,.41-1.06,4.29-3.12,8.24-4.66,12.37q-91.2,226.19-182,452.55-9,22.46-17.55,45.07c-.34,1.13-1.28,3-2.75,1.93-12.35-5.5-23.21-13.92-32.89-23.27-12.37-12.59-22.59-27.58-28.4-44.32a98.22,98.22,0,0,1,.85-65.67q14.46-38.22,29.07-76.39a5,5,0,0,0-.13-3.81c-29.09-72.78-57.77-145.72-87-218.44C457.27,215,446.6,188.81,436.43,162.4Z"/>
</g>
</g>
</g>
</svg>
